<?xml version="1.0" encoding="UTF-8" standalone="no"?>
<!-- Created with Inkscape (http://www.inkscape.org/) -->

<svg
   xmlns:dc="http://purl.org/dc/elements/1.1/"
   xmlns:cc="http://creativecommons.org/ns#"
   xmlns:rdf="http://www.w3.org/1999/02/22-rdf-syntax-ns#"
   xmlns:svg="http://www.w3.org/2000/svg"
   xmlns="http://www.w3.org/2000/svg"
   xmlns:sodipodi="http://sodipodi.sourceforge.net/DTD/sodipodi-0.dtd"
   xmlns:inkscape="http://www.inkscape.org/namespaces/inkscape"
   width="64px"
   height="64px"
   id="svg3018"
   version="1.1"
   inkscape:version="0.48.4 r9939"
   sodipodi:docname="New document 3">
  <defs
     id="defs3020" />
  <sodipodi:namedview
     id="base"
     pagecolor="#ffffff"
     bordercolor="#666666"
     borderopacity="1.0"
     inkscape:pageopacity="0.0"
     inkscape:pageshadow="2"
     inkscape:zoom="15.556349"
     inkscape:cx="52.849899"
     inkscape:cy="31.215578"
     inkscape:current-layer="layer1"
     showgrid="true"
     inkscape:document-units="px"
     inkscape:grid-bbox="true"
     inkscape:snap-global="false"
     inkscape:window-width="1920"
     inkscape:window-height="1032"
     inkscape:window-x="0"
     inkscape:window-y="25"
     inkscape:window-maximized="1">
    <inkscape:grid
       type="xygrid"
       id="grid3056" />
  </sodipodi:namedview>
  <metadata
     id="metadata3023">
    <rdf:RDF>
      <cc:Work
         rdf:about="">
        <dc:format>image/svg+xml</dc:format>
        <dc:type
           rdf:resource="http://purl.org/dc/dcmitype/StillImage" />
        <dc:title></dc:title>
      </cc:Work>
    </rdf:RDF>
  </metadata>
  <g
     id="layer1"
     inkscape:label="Layer 1"
     inkscape:groupmode="layer">
    <path
       style="fill:#ffffff;fill-opacity:1;stroke:none"
       d="M 12.205213,-0.02855987 C 25.632588,-0.01807812 39.060493,-0.04956474 52.48755,-0.01278208 59.122024,0.13392237 64.616177,6.4641457 64.02072,13.037 c -0.01062,13.125793 0.02072,26.252117 -0.01594,39.377588 -0.146688,6.634464 -6.476947,12.128652 -13.04977,11.533155 -13.12582,-0.01048 -26.252121,0.021 -39.377619,-0.01578 C 4.9429678,63.785262 -0.55123924,57.455039 0.04426983,50.882184 0.05491708,37.756392 0.02354907,24.630068 0.06021174,11.5046 0.24919929,5.1932781 5.8888171,-0.16335651 12.205259,-0.02855849 z"
       id="rect3972-7-8-4"
       inkscape:connector-curvature="0" />
    <path
       style="fill:#607d8b;fill-opacity:1;stroke:none"
       d="m 22.438785,16.270043 c 0.190795,3.908625 -4.673461,6.55943 -7.740936,4.218351 -3.245301,-2.010084 -2.723136,-7.550535 0.836053,-8.892288 3.151978,-1.467661 6.995445,1.129356 6.904883,4.673937 z"
       id="path2985-1-8-2-2-8-4-5-1-4-0-6-8"
       inkscape:connector-curvature="0" />
    <path
       style="fill:#ffc107;fill-opacity:1;stroke:none"
       d="m 48.602572,22.601109 c 0.201376,6.184386 -5.828287,11.481883 -11.778387,10.349324 -5.992565,-0.742154 -10.194084,-7.6056 -8.223456,-13.442345 1.608699,-5.938157 8.847346,-9.171072 14.199066,-6.330135 3.489459,1.676064 5.84413,5.47586 5.802777,9.423156 z"
       id="path2985-1-8-2-2-8-7-4-2-7-5"
       inkscape:connector-curvature="0" />
    <path
       style="fill:#00bcd4;fill-opacity:1;stroke:none"
       d="m 43.675497,38.58587 c 0.197067,8.161579 -6.566872,15.640759 -14.537665,16.08471 -7.811995,0.806766 -15.515461,-5.279838 -16.742671,-13.204232 -1.570544,-7.878327 3.587301,-16.329396 11.186653,-18.370665 7.389635,-2.329092 15.979802,1.879528 18.849354,9.216985 0.822022,1.977446 1.244485,4.125018 1.244329,6.273202 z"
       id="path2985-1-8-2-2-8-4-5-1-1-7-2"
       inkscape:connector-curvature="0" />
    <path
       style="fill:#f44336;fill-opacity:1;stroke:none"
       d="m 53.488516,34.776962 c 0.187398,5.155094 -5.163156,9.400922 -10.00201,7.938689 -4.900559,-1.103816 -7.594306,-7.402425 -5.050222,-11.828412 2.285471,-4.727355 9.18993,-5.762807 12.701815,-1.897871 1.493586,1.511378 2.359931,3.638195 2.350417,5.787594 z"
       id="path2985-1-8-2-2-8-7-4-3-9-1-0"
       inkscape:connector-curvature="0" />
  </g>
</svg>
