<?xml version="1.0" encoding="UTF-8" standalone="no"?>
<!-- Created with Inkscape (http://www.inkscape.org/) -->

<svg
   xmlns:dc="http://purl.org/dc/elements/1.1/"
   xmlns:cc="http://creativecommons.org/ns#"
   xmlns:rdf="http://www.w3.org/1999/02/22-rdf-syntax-ns#"
   xmlns:svg="http://www.w3.org/2000/svg"
   xmlns="http://www.w3.org/2000/svg"
   xmlns:sodipodi="http://sodipodi.sourceforge.net/DTD/sodipodi-0.dtd"
   xmlns:inkscape="http://www.inkscape.org/namespaces/inkscape"
   width="250"
   height="250"
   id="svg2"
   version="1.1"
   inkscape:version="0.91+devel+osxmenu r12911"
   sodipodi:docname="martian.svg.2016_02_28_00_27_05.0.svg"
   viewBox="0 0 250 250"
   inkscape:export-filename="/Users/mjwybrow/Desktop/MARSicon.png"
   inkscape:export-xdpi="75.260002"
   inkscape:export-ydpi="75.260002">
  <defs
     id="defs4" />
  <sodipodi:namedview
     id="base"
     pagecolor="#ffffff"
     bordercolor="#666666"
     borderopacity="1.0"
     inkscape:pageopacity="0.0"
     inkscape:pageshadow="2"
     inkscape:zoom="1.8774498"
     inkscape:cx="-30.093983"
     inkscape:cy="84.709599"
     inkscape:document-units="px"
     inkscape:current-layer="layer1"
     showgrid="false"
     inkscape:window-width="1920"
     inkscape:window-height="1080"
     inkscape:window-x="0"
     inkscape:window-y="23"
     inkscape:window-maximized="0"
     fit-margin-top="0"
     fit-margin-left="0"
     fit-margin-right="0"
     fit-margin-bottom="0" />
  <metadata
     id="metadata7">
    <rdf:RDF>
      <cc:Work
         rdf:about="">
        <dc:format>image/svg+xml</dc:format>
        <dc:type
           rdf:resource="http://purl.org/dc/dcmitype/StillImage" />
        <dc:title></dc:title>
      </cc:Work>
    </rdf:RDF>
  </metadata>
  <g
     inkscape:label="Layer 1"
     inkscape:groupmode="layer"
     id="layer1"
     transform="translate(-409.59814,-285.89697)">
    <rect
       style="opacity:1;fill:#ffffff;fill-opacity:1;stroke:none;stroke-width:1.88976383;stroke-linecap:butt;stroke-linejoin:round;stroke-miterlimit:4;stroke-dasharray:none;stroke-dashoffset:0;stroke-opacity:1;marker-start:none;marker-mid:none"
       id="rect7487"
       width="250"
       height="250"
       x="409.59814"
       y="285.89697" />
    <circle
       style="opacity:1;fill:#d7530f;fill-opacity:1;stroke:none;stroke-width:2.57696915;stroke-linecap:butt;stroke-linejoin:round;stroke-miterlimit:4;stroke-dasharray:none;stroke-dashoffset:0;stroke-opacity:1;marker-start:none;marker-mid:none"
       id="path7544"
       cx="514.87598"
       cy="401.10376"
       r="79.178612" />
    <circle
       style="opacity:1;fill:#a5530f;fill-opacity:1;stroke:none;stroke-width:2.57696915;stroke-linecap:butt;stroke-linejoin:round;stroke-miterlimit:4;stroke-dasharray:none;stroke-dashoffset:0;stroke-opacity:1;marker-start:none;marker-mid:none"
       id="path7544-7"
       cx="543.36096"
       cy="414.62207"
       r="13.035505" />
    <circle
       style="opacity:1;fill:#a5530f;fill-opacity:1;stroke:none;stroke-width:3.48368001;stroke-linecap:butt;stroke-linejoin:round;stroke-miterlimit:4;stroke-dasharray:none;stroke-dashoffset:0;stroke-opacity:1;marker-start:none;marker-mid:none"
       id="path7544-7-4"
       cx="470.70013"
       cy="404.24197"
       r="17.622072" />
    <circle
       style="opacity:1;fill:#a5530f;fill-opacity:1;stroke:none;stroke-width:3.53140187;stroke-linecap:butt;stroke-linejoin:round;stroke-miterlimit:4;stroke-dasharray:none;stroke-dashoffset:0;stroke-opacity:1;marker-start:none;marker-mid:none"
       id="path7544-7-1"
       cx="495.08136"
       cy="446.48666"
       r="17.86347" />
    <circle
       style="opacity:1;fill:#a5530f;fill-opacity:1;stroke:none;stroke-width:2.57696915;stroke-linecap:butt;stroke-linejoin:round;stroke-miterlimit:4;stroke-dasharray:none;stroke-dashoffset:0;stroke-opacity:1;marker-start:none;marker-mid:none"
       id="path7544-7-2"
       cx="506.1857"
       cy="343.65103"
       r="13.035505" />
    <circle
       style="opacity:1;fill:#a5530f;fill-opacity:1;stroke:none;stroke-width:2.57696915;stroke-linecap:butt;stroke-linejoin:round;stroke-miterlimit:4;stroke-dasharray:none;stroke-dashoffset:0;stroke-opacity:1;marker-start:none;marker-mid:none"
       id="path7544-7-9"
       cx="577.15674"
       cy="382.27475"
       r="5.3107629" />
    <circle
       style="opacity:1;fill:#a5530f;fill-opacity:1;stroke:none;stroke-width:2.57696915;stroke-linecap:butt;stroke-linejoin:round;stroke-miterlimit:4;stroke-dasharray:none;stroke-dashoffset:0;stroke-opacity:1;marker-start:none;marker-mid:none"
       id="path7544-7-9-2"
       cx="509.08246"
       cy="406.41455"
       r="5.3107629" />
    <circle
       style="opacity:1;fill:#a5530f;fill-opacity:1;stroke:none;stroke-width:2.57696915;stroke-linecap:butt;stroke-linejoin:round;stroke-miterlimit:4;stroke-dasharray:none;stroke-dashoffset:0;stroke-opacity:1;marker-start:none;marker-mid:none"
       id="path7544-7-9-7"
       cx="484.94263"
       cy="365.85965"
       r="5.3107629" />
    <circle
       style="opacity:1;fill:#a5530f;fill-opacity:1;stroke:none;stroke-width:4.21685743;stroke-linecap:butt;stroke-linejoin:round;stroke-miterlimit:4;stroke-dasharray:none;stroke-dashoffset:0;stroke-opacity:1;marker-start:none;marker-mid:none"
       id="path7544-7-9-4"
       cx="457.90604"
       cy="-371.6532"
       r="8.6903381"
       transform="scale(1,-1)" />
    <circle
       style="opacity:1;fill:#a5530f;fill-opacity:1;stroke:none;stroke-width:3.39691329;stroke-linecap:butt;stroke-linejoin:round;stroke-miterlimit:4;stroke-dasharray:none;stroke-dashoffset:0;stroke-opacity:1;marker-start:none;marker-mid:none"
       id="path7544-7-9-45"
       cx="460.07864"
       cy="432.24417"
       r="7.0005507" />
    <circle
       style="opacity:1;fill:#a5530f;fill-opacity:1;stroke:none;stroke-width:2.57696915;stroke-linecap:butt;stroke-linejoin:round;stroke-miterlimit:4;stroke-dasharray:none;stroke-dashoffset:0;stroke-opacity:1;marker-start:none;marker-mid:none"
       id="path7544-7-9-3"
       cx="530.3255"
       cy="461.45334"
       r="5.3107629" />
    <circle
       style="opacity:1;fill:#a5530f;fill-opacity:1;stroke:none;stroke-width:2.57696915;stroke-linecap:butt;stroke-linejoin:round;stroke-miterlimit:4;stroke-dasharray:none;stroke-dashoffset:0;stroke-opacity:1;marker-start:none;marker-mid:none"
       id="path7544-7-9-22"
       cx="569.43201"
       cy="416.55325"
       r="5.3107629" />
    <circle
       style="opacity:1;fill:#a5530f;fill-opacity:1;stroke:none;stroke-width:2.57696915;stroke-linecap:butt;stroke-linejoin:round;stroke-miterlimit:4;stroke-dasharray:none;stroke-dashoffset:0;stroke-opacity:1;marker-start:none;marker-mid:none"
       id="path7544-7-9-6"
       cx="531.77386"
       cy="381.79193"
       r="5.3107629" />
    <circle
       style="opacity:1;fill:#a5530f;fill-opacity:1;stroke:none;stroke-width:2.57696915;stroke-linecap:butt;stroke-linejoin:round;stroke-miterlimit:4;stroke-dasharray:none;stroke-dashoffset:0;stroke-opacity:1;marker-start:none;marker-mid:none"
       id="path7544-7-9-0"
       cx="548.67181"
       cy="348.96179"
       r="5.3107629" />
    <path
       style="fill:#2196f3;fill-opacity:1;stroke:#2196f3;stroke-width:1;stroke-linecap:butt;stroke-linejoin:miter;stroke-miterlimit:4;stroke-dasharray:none;stroke-opacity:1"
       d="m 265.34921,347.9526 c -20.82689,-41.09795 -90.1745,-39.38543 -115.33748,-2.41735 -24.22663,35.59243 -8.45661,106.14603 17.74424,139.40062 11.35543,14.41256 33.45879,19.4735 47.52917,9.66941 36.75446,-25.61016 72.76528,-101.85608 50.06407,-146.65268 z"
       id="path2985"
       inkscape:connector-curvature="0"
       sodipodi:nodetypes="aaaaa"
       inkscape:export-filename="/home/nathan/Desktop/melts/artwork/path3775.png"
       inkscape:export-xdpi="122.43"
       inkscape:export-ydpi="122.43" />
    <ellipse
       style="fill:#ffffff;fill-opacity:1;stroke:none;stroke-width:1.3619163;stroke-miterlimit:4;stroke-dasharray:none;stroke-opacity:1"
       id="path2989"
       transform="matrix(0.72940693,0,0,0.73914433,85.67794,110.2441)"
       inkscape:export-filename="/home/nathan/Desktop/melts/artwork/path3775.png"
       inkscape:export-xdpi="122.43"
       inkscape:export-ydpi="122.43"
       cx="101.78571"
       cy="390.21933"
       rx="39.224438"
       ry="63.57143" />
    <ellipse
       style="fill:#ffffff;fill-opacity:1;stroke:none;stroke-width:1.3619163;stroke-miterlimit:4;stroke-dasharray:none;stroke-opacity:1"
       id="path2991"
       transform="matrix(0.72940693,0,0,0.73914433,5.6661798,97.159514)"
       inkscape:export-filename="/home/nathan/Desktop/melts/artwork/path3775.png"
       inkscape:export-xdpi="122.43"
       inkscape:export-ydpi="122.43"
       cx="285.35715"
       cy="402.36218"
       rx="51.678032"
       ry="77.907906" />
    <path
       style="fill:none;stroke:#00446d;stroke-width:1.24199998;stroke-linecap:round;stroke-linejoin:round;stroke-miterlimit:4;stroke-dasharray:none;stroke-opacity:0.92352941"
       d="m 174.98261,473.24138 c 2.05287,3.57044 10.95834,7.52286 14.67203,-0.8705"
       id="path2995"
       inkscape:connector-curvature="0"
       sodipodi:nodetypes="cc"
       inkscape:export-filename="/home/nathan/Desktop/melts/artwork/path3775.png"
       inkscape:export-xdpi="122.43"
       inkscape:export-ydpi="122.43" />
    <ellipse
       style="fill:#000000;fill-opacity:1;stroke:#000000;stroke-width:16.79999924;stroke-linecap:round;stroke-linejoin:round;stroke-miterlimit:4;stroke-dasharray:none;stroke-dashoffset:0;stroke-opacity:1"
       id="path3773"
       transform="matrix(1.0529428,0,0,0.84399904,-13.286728,44.495617)"
       inkscape:export-filename="/home/nathan/Desktop/melts/artwork/path3775.png"
       inkscape:export-xdpi="122.43"
       inkscape:export-ydpi="122.43"
       cx="155.56349"
       cy="412.30426"
       rx="9.0913725"
       ry="15.531096" />
    <ellipse
       style="fill:#000000;fill-opacity:1;stroke:#000000;stroke-width:8.89999962;stroke-linecap:round;stroke-linejoin:round;stroke-miterlimit:4;stroke-dasharray:none;stroke-dashoffset:0;stroke-opacity:1"
       id="path3775"
       transform="matrix(0.95918535,0,0,1.0036843,3.3096599,-23.739137)"
       inkscape:export-xdpi="122.43"
       inkscape:export-ydpi="122.43"
       cx="207.71262"
       cy="411.42038"
       rx="19.824244"
       ry="22.728432" />
    <ellipse
       style="fill:#2196f3;fill-opacity:1;stroke:#2196f3;stroke-width:1;stroke-linecap:round;stroke-linejoin:round;stroke-miterlimit:4;stroke-dasharray:none;stroke-dashoffset:0;stroke-opacity:1"
       id="path3862"
       transform="rotate(-21.870311)"
       inkscape:export-filename="/home/nathan/Desktop/melts/artwork/waiting.png"
       inkscape:export-xdpi="122.43"
       inkscape:export-ydpi="122.43"
       cx="-124.24555"
       cy="909.54498"
       rx="2.8726213"
       ry="1.7993342" />
    <ellipse
       style="fill:#2196f3;fill-opacity:1;stroke:#2196f3;stroke-width:1;stroke-linecap:round;stroke-linejoin:round;stroke-miterlimit:4;stroke-dasharray:none;stroke-dashoffset:0;stroke-opacity:1"
       id="path3866"
       transform="rotate(9.7851062)"
       inkscape:export-filename="/home/nathan/Desktop/melts/artwork/waiting.png"
       inkscape:export-xdpi="122.43"
       inkscape:export-ydpi="122.43"
       cx="380.67398"
       cy="837.84308"
       rx="2.9515395"
       ry="1.8466852" />
    <path
       style="fill:#2196f3;fill-opacity:1;stroke:#2196f3;stroke-width:1px;stroke-linecap:butt;stroke-linejoin:miter;stroke-opacity:1"
       d="m 224.43579,844.60227 c 1.05579,5.33542 -10.97317,0.15544 -16.25,1.47321 -6.89716,1.72241 -8.93196,15.76905 -13.87254,13.44825 -7.53623,-3.54008 -5.38875,-5.14212 -11.4846,-7.64468 -2.88127,-1.18286 -9.43876,-7.06414 -11.25,-3.57142 -0.92895,1.79135 4.7258,1.64508 4.82142,3.6607 0.18211,3.8387 -10.10254,4.32548 -8.48105,7.80966 0.71814,1.54311 5.99371,-2.07276 5.065,-0.64644 -0.22613,0.3473 -4.76466,1.94253 -2.43894,4.06884 2.08197,1.90346 5.75483,-3.04294 5.60458,-2.2806 -0.26691,1.3543 -2.60633,2.25373 -2.13203,3.55003 0.3577,0.9776 2.00652,1.43411 2.95601,1.00736 3.33578,-1.49928 0.59513,-9.935 4.24787,-10.11598 2.55632,-0.12666 7.85932,6.78512 12.73459,7.55538 1.86852,0.29521 3.87379,-0.34639 5.53572,-1.25 4.43744,-2.41271 5.85362,-11.4155 10.83683,-10.5911 9.87499,1.63366 13.61767,16.77662 13.57143,26.78572 -0.008,1.79334 -1.74678,3.13807 -2.47584,4.77654 -0.36876,0.82874 0.0528,3.33335 1.13669,4.38438 0.63552,0.61627 1.98443,1.23282 2.59005,0.58714 0.74436,-0.79359 -1.06216,-2.0515 -0.92379,-3.13072 0.14188,-1.1066 0.76309,-2.30459 1.72642,-2.86734 0.89981,-0.52564 2.15512,-0.47046 3.125,-0.0893 0.97281,0.38231 1.92312,1.20196 2.23477,2.19965 0.40682,1.30232 -2.01236,3.4704 -0.7641,4.0212 1.68051,0.74153 3.27452,-2.5724 3.30557,-4.40897 0.0382,-2.26083 -3.47263,-3.33835 -3.88338,-5.56187 -1.6548,-8.95796 -1.74944,-22.89142 6.60714,-26.51786 6.05992,-2.62977 10.76088,8.83156 17.31772,9.63542 1.9893,0.24389 3.93993,-0.83296 5.80466,-1.56753 2.58977,-1.02018 4.9563,-2.53825 7.38051,-3.90604 1.08957,-0.61476 1.97003,-1.84207 3.21785,-1.93163 1.45925,-0.10474 2.90261,0.78702 4.04711,1.69834 1.83504,1.46118 2.83533,7.71386 4.10715,5.71429 0.89125,-1.40123 -0.25027,-5.23211 -0.89286,-6.29465 -0.13771,-0.22769 3.33307,5.64112 5,4.50894 0.83469,-0.56693 -2.6813,-5.88147 -3.44144,-6.78353 -0.44651,-0.52989 5.08819,5.79847 5.49501,3.56924 0.35884,-1.9663 -3.19896,-6.75706 -5.9945,-7.49782 -2.27546,-0.60295 -5.12273,0.72168 -6.35339,-0.95632 -1.56387,-2.13233 1.60019,-7.57529 -1.02811,-7.86611 -3.44728,-0.38144 -1.0996,7.33987 -3.57143,9.77284 -2.6524,2.61071 -1.68141,2.08086 -9.4505,6.92776 -2.27347,1.41835 -4.31681,0.63961 -5.74867,-0.11427 -3.01213,-1.58589 -4.55076,-5.72232 -8.84428,-8.51484 -4.27242,-2.7788 -15.59182,2.73062 -16.82161,-2.86731 -1.55594,-7.08254 -0.75893,-21.74107 -0.75893,-21.74107 l -6.78571,-0.80357 c -0.15473,-0.22802 1.59988,4.28111 5.1786,22.36608 z"
       id="path3835"
       inkscape:connector-curvature="0"
       sodipodi:nodetypes="ssssaaasssaasaaaasaaaaaaaaaaaaaaasssssssasssssccs"
       inkscape:export-filename="/home/nathan/Desktop/melts/artwork/waiting.png"
       inkscape:export-xdpi="122.43"
       inkscape:export-ydpi="122.43" />
    <path
       style="fill:#2196f3;fill-opacity:1;stroke:#0896f3;stroke-width:1.0250051;stroke-linecap:butt;stroke-linejoin:miter;stroke-miterlimit:4;stroke-dasharray:none;stroke-opacity:1"
       d="m 622.46156,350.80417 c -21.34767,-42.12562 -92.42933,-40.37028 -118.22151,-2.4778 -24.83242,36.48242 -8.66807,108.80023 18.18794,142.88635 11.63937,14.77295 34.29543,19.96044 48.71764,9.9112 37.67352,-26.25055 74.58479,-104.40301 51.31593,-150.31975 z"
       id="path2985-4"
       inkscape:connector-curvature="0"
       sodipodi:nodetypes="aaaaa"
       inkscape:export-filename="/home/nathan/Desktop/melts/artwork/waiting.png"
       inkscape:export-xdpi="122.43"
       inkscape:export-ydpi="122.43" />
    <ellipse
       style="fill:#ffffff;fill-opacity:1;stroke:none;stroke-width:0.75261974"
       id="path2991-4"
       transform="rotate(-4.7092234)"
       inkscape:export-filename="/home/nathan/Desktop/melts/artwork/waiting.png"
       inkscape:export-xdpi="122.43"
       inkscape:export-ydpi="122.43"
       cx="484.59198"
       cy="449.63782"
       rx="38.636864"
       ry="59.025108" />
    <ellipse
       style="fill:#ffffff;fill-opacity:1;stroke:none;stroke-width:1.0250051;stroke-miterlimit:4;stroke-dasharray:none;stroke-opacity:1"
       id="path2991-0"
       transform="rotate(3.7447529)"
       inkscape:export-filename="/home/nathan/Desktop/melts/artwork/waiting.png"
       inkscape:export-xdpi="122.43"
       inkscape:export-ydpi="122.43"
       cx="618.27185"
       cy="366.5412"
       rx="38.636864"
       ry="59.025108" />
    <path
       style="fill:#2196f3;fill-opacity:1;stroke:#000000;stroke-width:2.57696915;stroke-linecap:round;stroke-linejoin:round;stroke-miterlimit:4;stroke-dasharray:none;stroke-opacity:1"
       d="m 571.96023,481.88735 c -8.0835,6.13603 -14.72117,6.68336 -21.0133,5.89523"
       id="path3833"
       inkscape:connector-curvature="0"
       sodipodi:nodetypes="cc"
       inkscape:export-filename="/home/nathan/Desktop/melts/artwork/waiting.png"
       inkscape:export-xdpi="122.43"
       inkscape:export-ydpi="122.43" />
    <ellipse
       style="fill:#000000;fill-opacity:1;stroke:#000000;stroke-width:8.95088291;stroke-linecap:round;stroke-linejoin:round;stroke-miterlimit:4;stroke-dasharray:none;stroke-dashoffset:0;stroke-opacity:1"
       id="path3775-9"
       inkscape:export-filename="/home/nathan/Desktop/melts/artwork/waiting.png"
       inkscape:export-xdpi="122.43"
       inkscape:export-ydpi="122.43"
       cx="594.47668"
       cy="413.98581"
       rx="19.490599"
       ry="23.382591" />
    <ellipse
       style="fill:#000000;fill-opacity:1;stroke:#000000;stroke-width:8.95088291;stroke-linecap:round;stroke-linejoin:round;stroke-miterlimit:4;stroke-dasharray:none;stroke-dashoffset:0;stroke-opacity:1"
       id="path3775-9-4"
       inkscape:export-filename="/home/nathan/Desktop/melts/artwork/waiting.png"
       inkscape:export-xdpi="122.43"
       inkscape:export-ydpi="122.43"
       cx="513.96136"
       cy="415.19321"
       rx="19.490599"
       ry="23.382591" />
    <path
       style="fill:#2196f3;fill-opacity:1;stroke:#0896f3;stroke-width:1.13082051;stroke-linecap:butt;stroke-linejoin:miter;stroke-miterlimit:4;stroke-dasharray:none;stroke-opacity:1"
       d="m 298.17612,650.37518 c -23.55148,-46.47441 -101.97118,-44.53786 -130.426,-2.73359 -27.39597,40.24865 -9.5629,120.03211 20.06556,157.63708 12.84095,16.29802 37.83588,22.02104 53.74696,10.93437 41.5627,-28.96049 82.28447,-115.18095 56.61348,-165.83786 z"
       id="path2985-4-0"
       inkscape:connector-curvature="0"
       sodipodi:nodetypes="aaaaa"
       inkscape:export-filename="/home/nathan/Desktop/melts/artwork/waiting.png"
       inkscape:export-xdpi="122.43"
       inkscape:export-ydpi="122.43" />
    <ellipse
       style="fill:#ffffff;fill-opacity:1;stroke:none;stroke-width:0.83031571"
       id="path2991-4-4"
       transform="rotate(-4.7092234)"
       inkscape:export-filename="/home/nathan/Desktop/melts/artwork/waiting.png"
       inkscape:export-xdpi="122.43"
       inkscape:export-ydpi="122.43"
       cx="125.76411"
       cy="726.62366"
       rx="42.625504"
       ry="65.118507" />
    <ellipse
       style="fill:#ffffff;fill-opacity:1;stroke:none;stroke-width:1.13082051;stroke-miterlimit:4;stroke-dasharray:none;stroke-opacity:1"
       id="path2991-0-7"
       transform="rotate(3.7447529)"
       inkscape:export-filename="/home/nathan/Desktop/melts/artwork/waiting.png"
       inkscape:export-xdpi="122.43"
       inkscape:export-ydpi="122.43"
       cx="311.58374"
       cy="692.55103"
       rx="42.625504"
       ry="65.118507" />
    <path
       style="fill:#2196f3;fill-opacity:1;stroke:#000000;stroke-width:2.84299994;stroke-linecap:round;stroke-linejoin:round;stroke-miterlimit:4;stroke-dasharray:none;stroke-opacity:1"
       d="m 219.27481,801.78003 c 8.91799,-6.76947 16.2409,-7.37331 23.18259,-6.50381"
       id="path3833-8"
       inkscape:connector-curvature="0"
       sodipodi:nodetypes="cc"
       inkscape:export-filename="/home/nathan/Desktop/melts/artwork/waiting.png"
       inkscape:export-xdpi="122.43"
       inkscape:export-ydpi="122.43" />
    <ellipse
       style="fill:#000000;fill-opacity:1;stroke:#000000;stroke-width:9.87491894;stroke-linecap:round;stroke-linejoin:round;stroke-miterlimit:4;stroke-dasharray:none;stroke-dashoffset:0;stroke-opacity:1"
       id="path3775-9-1"
       inkscape:export-filename="/home/nathan/Desktop/melts/artwork/waiting.png"
       inkscape:export-xdpi="122.43"
       inkscape:export-ydpi="122.43"
       cx="267.30219"
       cy="720.07928"
       rx="21.502691"
       ry="25.796471" />
    <ellipse
       style="fill:#000000;fill-opacity:1;stroke:#000000;stroke-width:9.87491894;stroke-linecap:round;stroke-linejoin:round;stroke-miterlimit:4;stroke-dasharray:none;stroke-dashoffset:0;stroke-opacity:1"
       id="path3775-9-4-0"
       inkscape:export-filename="/home/nathan/Desktop/melts/artwork/waiting.png"
       inkscape:export-xdpi="122.43"
       inkscape:export-ydpi="122.43"
       cx="178.47505"
       cy="721.41132"
       rx="21.502691"
       ry="25.796471" />
  </g>
</svg>
